<svg width="362" height="98" viewBox="0 0 362 98" fill="none" xmlns="http://www.w3.org/2000/svg">
<path d="M340.318 83.0909C335.273 83.0909 330.921 81.9773 327.261 79.75C323.625 77.5 320.818 74.3636 318.841 70.3409C316.886 66.2954 315.909 61.5909 315.909 56.2273C315.909 50.8636 316.886 46.1363 318.841 42.0454C320.818 37.9318 323.568 34.7273 327.091 32.4318C330.636 30.1136 334.773 28.9545 339.5 28.9545C342.227 28.9545 344.921 29.4091 347.58 30.3182C350.239 31.2273 352.659 32.7045 354.841 34.75C357.023 36.7727 358.761 39.4545 360.057 42.7954C361.352 46.1363 362 50.25 362 55.1363V58.5454H321.636V51.5909H353.818C353.818 48.6363 353.227 46 352.046 43.6818C350.886 41.3636 349.227 39.5341 347.068 38.1932C344.932 36.8523 342.409 36.1818 339.5 36.1818C336.296 36.1818 333.523 36.9773 331.182 38.5682C328.864 40.1363 327.08 42.1818 325.83 44.7045C324.58 47.2273 323.955 49.9318 323.955 52.8182V57.4545C323.955 61.4091 324.636 64.7613 326 67.5113C327.386 70.2386 329.307 72.3182 331.761 73.75C334.216 75.1591 337.068 75.8636 340.318 75.8636C342.432 75.8636 344.341 75.5682 346.046 74.9773C347.773 74.3636 349.261 73.4545 350.511 72.25C351.761 71.0227 352.727 69.5 353.409 67.6818L361.182 69.8636C360.364 72.5 358.989 74.8182 357.057 76.8182C355.125 78.7954 352.739 80.3409 349.898 81.4545C347.057 82.5454 343.864 83.0909 340.318 83.0909Z" fill="white"/>
<path d="M300.454 41.3636L293.227 43.4091C292.773 42.2045 292.102 41.0341 291.216 39.8977C290.352 38.7386 289.17 37.7841 287.67 37.0341C286.17 36.2841 284.25 35.9091 281.909 35.9091C278.705 35.9091 276.034 36.6477 273.898 38.125C271.784 39.5795 270.727 41.4318 270.727 43.6818C270.727 45.6818 271.455 47.2613 272.909 48.4204C274.364 49.5795 276.636 50.5454 279.727 51.3182L287.5 53.2273C292.182 54.3636 295.67 56.1023 297.966 58.4432C300.261 60.7614 301.409 63.75 301.409 67.4091C301.409 70.4091 300.545 73.0909 298.818 75.4545C297.114 77.8182 294.727 79.6818 291.659 81.0454C288.591 82.4091 285.023 83.0909 280.955 83.0909C275.614 83.0909 271.193 81.9318 267.693 79.6136C264.193 77.2954 261.977 73.9091 261.045 69.4545L268.682 67.5454C269.409 70.3636 270.784 72.4773 272.807 73.8863C274.852 75.2954 277.523 76 280.818 76C284.568 76 287.545 75.2045 289.75 73.6136C291.977 72 293.091 70.0682 293.091 67.8182C293.091 66 292.455 64.4773 291.182 63.25C289.909 62 287.955 61.0682 285.318 60.4545L276.591 58.4091C271.795 57.2727 268.273 55.5113 266.023 53.125C263.795 50.7159 262.682 47.7045 262.682 44.0909C262.682 41.1363 263.511 38.5227 265.17 36.25C266.852 33.9773 269.136 32.1932 272.023 30.8977C274.932 29.6023 278.227 28.9545 281.909 28.9545C287.091 28.9545 291.159 30.0909 294.114 32.3636C297.091 34.6363 299.204 37.6363 300.454 41.3636Z" fill="white"/>
<path d="M219.773 83.2273C216.455 83.2273 213.443 82.6023 210.739 81.3523C208.034 80.0795 205.886 78.25 204.296 75.8636C202.705 73.4545 201.909 70.5454 201.909 67.1363C201.909 64.1363 202.5 61.7045 203.682 59.8409C204.864 57.9545 206.443 56.4773 208.421 55.4091C210.398 54.3409 212.58 53.5454 214.966 53.0227C217.375 52.4773 219.796 52.0454 222.227 51.7273C225.409 51.3182 227.989 51.0113 229.966 50.8068C231.966 50.5795 233.421 50.2045 234.33 49.6818C235.261 49.1591 235.727 48.25 235.727 46.9545V46.6818C235.727 43.3182 234.807 40.7045 232.966 38.8409C231.148 36.9773 228.386 36.0454 224.682 36.0454C220.841 36.0454 217.83 36.8863 215.648 38.5682C213.466 40.25 211.932 42.0454 211.046 43.9545L203.409 41.2273C204.773 38.0454 206.591 35.5682 208.864 33.7954C211.159 32 213.659 30.75 216.364 30.0454C219.091 29.3182 221.773 28.9545 224.409 28.9545C226.091 28.9545 228.023 29.1591 230.205 29.5682C232.409 29.9545 234.534 30.7613 236.58 31.9886C238.648 33.2159 240.364 35.0682 241.727 37.5454C243.091 40.0227 243.773 43.3409 243.773 47.5V82H235.727V74.9091H235.318C234.773 76.0454 233.864 77.2613 232.591 78.5568C231.318 79.8523 229.625 80.9545 227.511 81.8636C225.398 82.7727 222.818 83.2273 219.773 83.2273ZM221 76C224.182 76 226.864 75.375 229.046 74.125C231.25 72.875 232.909 71.2613 234.023 69.2841C235.159 67.3068 235.727 65.2273 235.727 63.0454V55.6818C235.386 56.0909 234.636 56.4659 233.477 56.8068C232.341 57.125 231.023 57.4091 229.523 57.6591C228.046 57.8863 226.602 58.0909 225.193 58.2727C223.807 58.4318 222.682 58.5682 221.818 58.6818C219.727 58.9545 217.773 59.3977 215.955 60.0113C214.159 60.6023 212.705 61.5 211.591 62.7045C210.5 63.8863 209.955 65.5 209.955 67.5454C209.955 70.3409 210.989 72.4545 213.057 73.8863C215.148 75.2954 217.796 76 221 76Z" fill="white"/>
<path d="M135.636 21.6818V14.1818H188V21.6818H166.046V84H157.591V21.6818H135.636Z" fill="white"/>
<path d="M100 98H0L12.7549 73H87.2451L100 98ZM82.1436 63H17.8564L31.1221 37H68.8779L82.1436 63ZM63.7754 27H36.2246L50 0L63.7754 27Z" fill="white"/>
<path d="M73 0L123 98H110L60 0H73Z" fill="white"/>
</svg>
