<svg width="776" height="400" viewBox="0 0 776 400" fill="none" xmlns="http://www.w3.org/2000/svg">
<mask id="path-1-inside-1_2309_121" fill="white">
<path d="M575.304 0C582.88 0 589.805 4.28005 593.193 11.0557L773.193 371.056C779.842 384.354 770.172 400 755.304 400H20.0257C5.15805 400 -4.51184 384.354 2.13717 371.056L182.137 11.0557C185.525 4.28005 192.45 0 200.026 0H575.304Z"/>
</mask>
<path d="M575.304 0C582.88 0 589.805 4.28005 593.193 11.0557L773.193 371.056C779.842 384.354 770.172 400 755.304 400H20.0257C5.15805 400 -4.51184 384.354 2.13717 371.056L182.137 11.0557C185.525 4.28005 192.45 0 200.026 0H575.304Z" fill="white"/>
<path d="M182.137 11.0557L180.348 10.1613L182.137 11.0557ZM2.13717 371.056L0.348321 370.161L2.13717 371.056ZM773.193 371.056L771.404 371.95L773.193 371.056ZM593.193 11.0557L594.982 10.1613L593.193 11.0557ZM593.193 11.0557L591.404 11.9502L771.404 371.95L773.193 371.056L774.982 370.161L594.982 10.1613L593.193 11.0557ZM755.304 400V398H20.0257V400V402H755.304V400ZM2.13717 371.056L3.92603 371.95L183.926 11.9502L182.137 11.0557L180.348 10.1613L0.348321 370.161L2.13717 371.056ZM200.026 0V2H575.304V0V-2H200.026V0ZM182.137 11.0557L183.926 11.9502C186.975 5.85205 193.208 2 200.026 2V0V-2C191.693 -2 184.075 2.70806 180.348 10.1613L182.137 11.0557ZM20.0257 400V398C6.64482 398 -2.05808 383.918 3.92603 371.95L2.13717 371.056L0.348321 370.161C-6.96559 384.789 3.67128 402 20.0257 402V400ZM773.193 371.056L771.404 371.95C777.388 383.918 768.685 398 755.304 398V400V402C771.659 402 782.296 384.789 774.982 370.161L773.193 371.056ZM593.193 11.0557L594.982 10.1613C591.255 2.70805 583.637 -2 575.304 -2V0V2C582.122 2 588.355 5.85204 591.404 11.9502L593.193 11.0557Z" fill="black" mask="url(#path-1-inside-1_2309_121)"/>
</svg>
