<svg width="347" height="130" viewBox="0 0 347 130" fill="none" xmlns="http://www.w3.org/2000/svg">
<path d="M86.6365 41.6818V34.1818H139V41.6818H117.046V104H108.591V41.6818H86.6365Z" fill="white"/>
<path d="M303.455 104V34.1818H345.591V41.6818H311.909V65.2727H343.409V72.7727H311.909V96.5H346.136V104H303.455Z" fill="white"/>
<path d="M271.636 51.6364C271.227 48.1818 269.568 45.5 266.659 43.5909C263.75 41.6818 260.182 40.7273 255.955 40.7273C252.864 40.7273 250.159 41.2273 247.841 42.2273C245.545 43.2273 243.75 44.6023 242.455 46.3523C241.182 48.1023 240.545 50.0909 240.545 52.3182C240.545 54.1818 240.989 55.7841 241.875 57.125C242.784 58.4432 243.943 59.5455 245.352 60.4318C246.761 61.2955 248.239 62.0114 249.784 62.5796C251.33 63.125 252.75 63.5682 254.045 63.9091L261.136 65.8182C262.955 66.2955 264.977 66.9546 267.205 67.7955C269.455 68.6364 271.602 69.7841 273.648 71.2387C275.716 72.6705 277.421 74.5114 278.761 76.7614C280.102 79.0114 280.773 81.7728 280.773 85.0455C280.773 88.8182 279.784 92.2273 277.807 95.2728C275.852 98.3182 272.989 100.739 269.216 102.534C265.466 104.33 260.909 105.227 255.545 105.227C250.545 105.227 246.216 104.42 242.557 102.807C238.92 101.193 236.057 98.9432 233.966 96.0568C231.898 93.1705 230.727 89.8182 230.455 86H239.182C239.409 88.6364 240.295 90.8182 241.841 92.5455C243.409 94.25 245.386 95.5228 247.773 96.3637C250.182 97.1818 252.773 97.5909 255.545 97.5909C258.773 97.5909 261.671 97.0682 264.239 96.0228C266.807 94.9546 268.841 93.4773 270.341 91.5909C271.841 89.6818 272.591 87.4546 272.591 84.9091C272.591 82.5909 271.943 80.7046 270.648 79.25C269.352 77.7955 267.648 76.6137 265.534 75.7046C263.421 74.7955 261.136 74 258.682 73.3182L250.091 70.8637C244.636 69.2955 240.318 67.0568 237.136 64.1478C233.955 61.2387 232.364 57.4318 232.364 52.7273C232.364 48.8182 233.42 45.4091 235.534 42.5C237.67 39.5682 240.534 37.2955 244.125 35.6818C247.739 34.0455 251.773 33.2273 256.227 33.2273C260.727 33.2273 264.727 34.0341 268.227 35.6477C271.727 37.2387 274.5 39.4205 276.546 42.1932C278.614 44.9659 279.705 48.1137 279.818 51.6364H271.636Z" fill="white"/>
<path d="M163.318 104H154.455L180.091 34.1818H188.818L214.455 104H205.591L184.727 45.2273H184.182L163.318 104ZM166.591 76.7273H202.318V84.2273H166.591V76.7273Z" fill="white"/>
<path d="M52.4524 63.8947C55.37 70.1515 52.663 77.5887 46.4063 80.5063C40.1495 83.4239 32.7123 80.7169 29.7947 74.4602C26.8771 68.2034 29.5841 60.7662 35.8408 57.8486C42.0976 54.931 49.5348 57.638 52.4524 63.8947Z" fill="white"/>
<path d="M38.491 52.8845C37.0236 53.1224 35.564 53.5641 34.1501 54.2234C32.7363 54.8827 31.4597 55.7168 30.3342 56.6881L19.2434 32.9037C20.711 32.6658 22.1707 32.225 23.5847 31.5657C24.9986 30.9064 26.2747 30.0714 27.4002 29.1001L38.491 52.8845Z" fill="white"/>
<path d="M27.9404 11.3289C30.858 17.5856 28.1511 25.0229 21.8943 27.9405C15.6376 30.858 8.2003 28.1511 5.28273 21.8943C2.36516 15.6376 5.0721 8.20033 11.3288 5.28276C17.5856 2.36519 25.0229 5.07213 27.9404 11.3289Z" fill="white"/>
<path d="M73.9844 129.053H8.98438L14.6787 118.54H68.29L73.9844 129.053ZM66.0391 114.385H16.9297L23.1201 102.956H59.8486L66.0391 114.385ZM57.5977 98.7998H25.3711L33.4922 83.8057C37.887 86.0943 43.2588 86.3877 48.0967 84.1318C48.5139 83.9373 48.9186 83.726 49.3115 83.502L57.5977 98.7998Z" fill="white"/>
</svg>
