<svg width="410" height="381" viewBox="0 0 410 381" fill="none" xmlns="http://www.w3.org/2000/svg">
<path d="M351.105 179.561C351.105 276.695 272.507 355.437 175.552 355.437C78.5974 355.437 0 276.695 0 179.561C0 82.4265 78.5974 3.68381 175.552 3.68381C272.507 3.68381 351.105 82.4265 351.105 179.561Z" fill="#E14D28"/>
<path d="M405.426 166.649C411.525 170.177 411.525 178.997 405.426 182.525L338.074 221.482C331.974 225.01 324.35 220.6 324.35 213.545V135.629C324.35 128.574 331.974 124.164 338.074 127.692L405.426 166.649Z" fill="#E14D28"/>
<path d="M335.935 324.212C337.757 331.027 331.532 337.263 324.73 335.437L261.356 318.425C254.554 316.599 252.275 308.08 257.255 303.091L303.648 256.612C308.628 251.623 317.131 253.906 318.954 260.721L335.935 324.212Z" fill="#E14D28"/>
<path d="M182.682 376.417C179.161 382.528 170.357 382.528 166.836 376.417L143.588 336.076C140.067 329.965 144.468 322.327 151.511 322.327H198.007C205.05 322.327 209.451 329.965 205.93 336.076L182.682 376.417Z" fill="#E14D28"/>
<path d="M337.581 0.322043C344.383 -1.50411 350.608 4.7323 348.786 11.5476L325.509 98.5779C323.686 105.393 315.183 107.676 310.203 102.687L246.61 38.9761C241.63 33.987 243.908 25.4679 250.711 23.6417L337.581 0.322043Z" fill="#E14D28"/>
<path d="M326.546 179.71C326.546 265.764 256.913 335.525 171.018 335.525C85.1218 335.525 15.4895 265.764 15.4895 179.71C15.4895 93.6553 85.1218 23.8943 171.018 23.8943C256.913 23.8943 326.546 93.6553 326.546 179.71Z" fill="#F17329"/>
<path d="M295.44 179.71C295.44 253.109 236.048 312.611 162.784 312.611C89.5196 312.611 30.1274 253.109 30.1274 179.71C30.1274 106.31 89.5196 46.8084 162.784 46.8084C236.048 46.8084 295.44 106.31 295.44 179.71Z" fill="#F18647"/>
<path d="M260.675 184.293C260.675 242.506 213.571 289.697 155.465 289.697C97.3588 289.697 50.2546 242.506 50.2546 184.293C50.2546 126.079 97.3588 78.8881 155.465 78.8881C213.571 78.8881 260.675 126.079 260.675 184.293Z" fill="black"/>
</svg>
